


<svg version="1.0" xmlns="http://www.w3.org/2000/svg"
 width="30pt" height="30pt" viewBox="0 0 512.000000 512.000000"
 preserveAspectRatio="xMidYMid meet">

<g transform="translate(0.000000,512.000000) scale(0.100000,-0.100000)"
fill="#000000" stroke="none">
<path d="M2820 5104 c-167 -35 -324 -159 -398 -314 -52 -110 -62 -162 -62
-330 l0 -140 -153 0 c-215 0 -278 -22 -333 -116 -24 -41 -28 -61 -36 -187 -5
-78 -11 -166 -14 -195 l-5 -52 -287 2 -287 3 -101 557 c-78 429 -106 564 -123
591 -41 66 -45 67 -474 67 -382 0 -384 0 -418 -23 -19 -12 -45 -44 -58 -71
-22 -45 -23 -52 -12 -95 7 -25 22 -57 34 -69 47 -51 56 -52 370 -52 l295 0 5
-27 c3 -16 143 -795 312 -1733 225 -1251 312 -1717 328 -1750 17 -34 33 -51
67 -67 l44 -23 1350 0 c1345 0 1350 0 1392 21 24 11 52 35 62 52 29 47 745
2414 745 2462 0 51 -24 97 -65 127 l-33 23 -447 3 c-310 2 -448 6 -448 13 0 6
-5 88 -11 182 -14 224 -36 278 -134 330 -35 19 -60 22 -217 25 l-178 4 0 153
c0 136 -3 163 -25 233 -90 286 -390 460 -685 396z m246 -332 c48 -25 110 -90
132 -141 11 -25 17 -78 20 -173 l4 -138 -271 0 -271 0 0 138 c0 123 3 142 24
188 27 58 90 116 150 138 56 21 159 15 212 -12z m-706 -841 c0 -54 5 -75 23
-101 52 -77 138 -100 211 -58 55 32 78 75 84 159 l5 69 266 -2 266 -3 5 -75
c7 -88 25 -120 86 -150 51 -25 94 -25 143 0 56 28 83 77 89 161 l5 69 98 0
c97 0 99 -1 99 -23 0 -13 25 -444 55 -957 30 -514 55 -941 55 -947 0 -10 -188
-13 -906 -13 l-906 0 5 53 c4 28 29 459 58 957 28 498 53 911 55 918 2 8 32
12 104 12 l100 0 0 -69z m-560 -493 c1 -7 -18 -346 -42 -754 -37 -643 -40
-746 -29 -785 17 -57 92 -133 146 -148 28 -8 351 -11 1081 -11 l1042 0 53 28
c58 30 104 90 118 154 5 20 -10 337 -35 759 -24 398 -43 734 -44 747 l0 22
301 0 c281 0 300 -1 295 -17 -28 -97 -556 -1836 -582 -1920 l-35 -113 -1200 0
c-659 0 -1199 3 -1199 6 0 7 -358 2001 -364 2027 -4 16 13 17 245 17 192 0
249 -3 249 -12z"/>
<path d="M2400 2557 c-88 -46 -114 -156 -54 -234 45 -60 61 -63 287 -63 195 0
205 1 237 23 50 33 72 70 77 124 5 65 -26 120 -87 151 -41 20 -57 22 -231 22
-175 0 -188 -1 -229 -23z"/>
<path d="M1830 910 c-173 -23 -320 -147 -372 -314 -23 -75 -25 -200 -3 -272
63 -210 292 -353 509 -315 249 42 420 278 378 521 -42 247 -265 412 -512 380z
m140 -339 c32 -22 60 -77 60 -116 0 -62 -71 -135 -133 -135 -104 0 -170 100
-128 195 34 78 132 105 201 56z"/>
<path d="M3936 909 c-82 -12 -176 -58 -241 -120 -274 -259 -137 -713 235 -780
226 -40 455 105 515 325 27 100 18 222 -23 309 -17 37 -48 88 -68 112 -93 114
-261 175 -418 154z m129 -329 c50 -24 75 -65 75 -122 0 -54 -27 -100 -73 -121
-45 -22 -84 -21 -126 1 -104 56 -88 218 25 252 44 13 54 12 99 -10z"/>
</g>
</svg>

